PathFileType	4	(X/Y/Z)	 s06c0402.trc
DataRate	CameraRate	NumFrames	NumMarkers	Units	OrigDataRate	OrigDataStartFrame	OrigNumFrames
200	200	6	48	mm	200	751	2000
Frame#	Time	racr			lacr			c7			jug			rlel			rdr			llel			ldr			s2			lic			ric			lasi			rasi			rpsi			lpsi			rgt			lgt			rth1			rth2			rth3			rth4			rlfc			rmfc			rsh1			rsh2			rsh3			rsh4			rlmal			rcal			rtoe			rmt5			lth1			lth2			lth4			lth3			llfc			lmfc			llmal			lcal			lmt5			lsh1			lsh2			lsh3			lsh4			ltoe			SBIKE			LBIKE			RBIKE			
		X1	Y1	Z1	X2	Y2	Z2	X3	Y3	Z3	X4	Y4	Z4	X5	Y5	Z5	X6	Y6	Z6	X7	Y7	Z7	X8	Y8	Z8	X9	Y9	Z9	X10	Y10	Z10	X11	Y11	Z11	X12	Y12	Z12	X13	Y13	Z13	X14	Y14	Z14	X15	Y15	Z15	X16	Y16	Z16	X17	Y17	Z17	X18	Y18	Z18	X19	Y19	Z19	X20	Y20	Z20	X21	Y21	Z21	X22	Y22	Z22	X23	Y23	Z23	X24	Y24	Z24	X25	Y25	Z25	X26	Y26	Z26	X27	Y27	Z27	X28	Y28	Z28	X29	Y29	Z29	X30	Y30	Z30	X31	Y31	Z31	X32	Y32	Z32	X33	Y33	Z33	X34	Y34	Z34	X35	Y35	Z35	X36	Y36	Z36	X37	Y37	Z37	X38	Y38	Z38	X39	Y39	Z39	X40	Y40	Z40	X41	Y41	Z41	X42	Y42	Z42	X43	Y43	Z43	X44	Y44	Z44	X45	Y45	Z45	X46	Y46	Z46	X47	Y47	Z47	X48	Y48	Z48	
751	3.7550	723.718625	1295.669632	-25.246626	761.520646	1264.949396	-358.266792	750.753632	1393.014346	-188.815854	730.919535	1225.328485	-180.906205	554.867498	1090.136504	82.495014	683.533772	943.123251	-40.399507	567.943555	1108.297002	-501.534570	675.683942	937.447665	-414.656710	201.480159	1200.034703	-261.680404	380.937986	1127.143712	-395.602491	320.071178	1186.900631	-78.717125	381.166523	1071.497616	-354.098855	355.389533	1138.777624	-105.628513	235.911860	1238.126947	-234.335661	245.551638	1227.581885	-293.122320	306.182599	1127.763542	-34.530981	317.402747	1040.379280	-420.996147	411.447029	1049.793800	-29.945333	495.535196	1009.854058	-39.104694	539.771832	939.501228	-34.174645	511.222289	1034.405920	-60.249539	586.351390	846.591978	-59.960161	568.035499	823.899519	-172.213469	500.628220	759.568275	-34.096077	443.678441	697.431508	-51.389390	360.769431	665.005500	-48.761164	455.247244	681.760449	-87.986638	281.128152	624.287053	-50.781209	214.621406	646.028578	-98.499506	378.242519	423.789965	-101.673782	303.116429	485.565722	-30.165140	290.282621	918.685846	-437.504396	310.142953	833.820491	-436.447641	347.009873	832.405893	-428.205751	284.180003	748.438785	-427.368819	268.985630	631.718544	-405.560608	273.831830	613.123939	-287.976505	146.263930	287.599316	-376.989006	87.939358	310.834530	-328.286228	197.541769	145.826498	-403.822833	229.412741	530.305098	-421.065840	225.455741	445.098615	-403.811015	177.629569	370.668426	-392.281750	255.270697	440.457885	-378.362675	263.319337	88.504721	-345.024800	-156.723440	857.608791	-214.744782	-49.610518	83.753184	-414.712672	-49.375315	80.035547	-17.286890	
752	3.7600	724.090642	1293.409210	-23.763864	761.999138	1264.905590	-357.060178	752.085343	1392.157006	-186.672669	731.222307	1224.309957	-179.906163	554.268460	1088.508983	83.206967	683.117471	942.987883	-40.835383	569.008324	1108.429551	-501.165072	676.066295	937.052433	-414.713077	201.543815	1203.315017	-262.146395	380.831746	1129.528062	-395.529918	318.576208	1189.808527	-80.126383	380.530792	1073.802147	-354.083431	353.304813	1141.068822	-106.731879	236.276734	1241.432410	-235.066239	245.927933	1230.597908	-293.420513	305.151602	1132.080350	-35.096144	316.923048	1042.795377	-421.191781	409.710749	1053.586994	-30.286269	492.898400	1013.160855	-38.679811	536.829187	945.342849	-29.926886	509.326530	1038.075711	-59.843701	585.582300	849.893900	-59.157745	567.899343	828.238887	-172.401653	501.074450	760.910442	-33.507897	445.280632	697.591179	-51.111234	363.191578	663.699160	-48.447469	457.356238	682.516064	-87.538226	284.459926	620.927222	-50.493697	216.818734	640.059595	-98.183415	389.315908	424.674550	-101.762800	311.895738	483.156445	-29.984774	291.009633	920.579251	-437.400075	311.869347	835.947246	-436.751082	348.734887	834.908829	-428.241376	286.826018	750.279106	-428.218308	271.552082	633.539160	-405.853407	277.096144	614.356714	-288.422591	143.340796	292.228432	-377.222556	86.260200	317.723390	-328.265467	188.575234	148.270866	-403.782914	230.493218	533.223146	-421.292004	225.160837	448.065817	-403.936946	176.098266	374.414919	-392.478566	254.903424	442.866330	-378.610536	252.132776	88.493885	-345.070307	-156.798545	857.651782	-214.589495	-49.602181	83.839361	-414.694201	-49.374932	80.086300	-17.281580	
753	3.7650	724.524585	1291.102671	-22.303359	762.453756	1264.823683	-355.834051	753.363901	1391.341514	-184.758728	731.419382	1223.241090	-178.956980	554.042341	1086.692902	83.553088	682.785056	942.904103	-41.734985	569.919208	1108.624852	-500.839206	676.350668	936.873929	-414.693985	202.004962	1206.737545	-262.541295	380.538128	1132.169823	-395.500453	318.036320	1193.126836	-79.982739	379.836648	1076.098690	-354.530077	352.544041	1144.068531	-106.327602	236.462305	1244.914970	-235.305542	246.334272	1233.589235	-293.579986	304.211601	1136.458901	-35.594488	316.188242	1045.482822	-421.479651	407.585278	1057.046940	-30.240145	490.661048	1016.849577	-37.940248	535.203699	945.234261	-33.790340	506.874796	1040.975827	-59.666021	584.117847	852.743112	-58.205507	567.011210	831.740643	-172.445711	500.577705	762.062163	-32.923045	446.161735	697.347306	-50.439043	364.965334	661.778539	-47.924610	458.933851	682.284837	-86.536256	287.311682	616.387742	-50.305386	218.779836	633.055878	-97.710650	400.523111	425.065447	-101.257276	319.897147	480.108085	-29.811474	292.043417	922.687398	-437.159639	314.128115	838.336209	-436.963055	350.980255	837.775466	-428.178419	290.357599	752.271816	-428.944975	275.146174	635.616830	-406.136600	281.392853	616.109919	-288.829957	140.800958	297.406811	-377.398874	85.037624	325.031708	-328.210427	179.780815	151.368047	-403.654479	232.484579	536.399688	-421.433004	225.593481	451.451411	-403.893758	175.264241	378.619458	-392.614889	255.361257	445.611085	-378.707767	240.922396	89.128635	-344.923138	-157.004651	857.843049	-214.708551	-49.592106	83.966787	-414.661519	-49.377244	80.212059	-17.277014	
754	3.7700	724.848013	1288.886442	-21.007071	762.909303	1264.720396	-354.550241	754.467095	1390.549152	-182.771395	731.187983	1222.247216	-177.756231	555.106197	1084.835127	83.100231	682.715012	943.028039	-42.283036	570.641643	1108.878771	-500.535567	676.586418	936.856392	-414.744870	202.280449	1210.344415	-262.521441	380.148596	1134.840719	-395.647100	317.443047	1196.180101	-80.045581	378.947664	1078.589598	-355.002553	351.588041	1146.729221	-106.167535	237.061398	1248.543228	-235.504276	246.713770	1236.840708	-293.459166	303.370818	1140.722292	-36.141274	315.219990	1048.378624	-421.983180	405.324928	1060.320352	-30.250328	486.144710	1018.959748	-37.061857	531.901338	948.274821	-31.835551	505.130819	1043.619292	-59.223987	581.879385	854.768179	-56.763821	565.390388	834.256394	-172.218141	499.342776	762.398209	-31.504664	445.579849	696.423133	-49.503517	366.144725	658.969145	-47.200723	460.324668	681.064246	-85.128718	289.934601	610.945723	-49.840339	220.583333	625.000950	-96.975170	411.012360	424.823572	-100.871771	328.117158	476.209367	-29.434244	293.276166	924.900916	-436.925790	317.019794	841.016764	-436.880738	353.762534	841.160007	-427.919474	294.622544	754.476108	-429.469547	279.663767	637.891290	-406.193985	286.872393	618.282833	-289.212727	138.555581	303.012143	-377.388506	83.993737	332.660430	-328.058677	171.202674	155.170055	-403.304539	235.356473	539.786827	-421.496498	226.692761	454.851181	-403.357328	175.069875	383.200261	-392.665553	256.005170	448.273860	-377.333758	229.887349	90.473823	-344.904454	-157.031281	857.978077	-214.704576	-49.552733	84.114333	-414.631331	-49.351907	80.296563	-17.252433	
755	3.7750	725.209585	1286.792158	-19.785789	763.248774	1264.592754	-353.256822	755.461931	1389.963738	-180.966898	731.170098	1221.466209	-176.826068	554.715502	1083.425063	83.414606	682.788782	943.226215	-42.711002	571.316957	1109.220513	-500.206175	676.812812	936.927515	-414.773581	202.658974	1213.947166	-262.372018	379.656515	1137.442520	-395.842946	316.975893	1199.037552	-80.177072	378.089189	1081.119267	-356.122427	350.536877	1149.098341	-106.166432	237.596240	1252.160506	-235.443189	247.179388	1240.122515	-293.165844	302.253134	1144.827946	-37.184693	314.172814	1051.335997	-422.512383	402.868899	1062.716923	-30.402472	482.184634	1021.796397	-35.342857	528.800542	950.225842	-30.686063	502.813672	1045.316737	-58.890165	579.453038	855.676918	-56.084039	563.047861	835.377551	-171.511368	497.039309	762.365868	-30.576965	445.327636	694.722547	-48.180849	366.856754	655.406316	-46.270130	460.782489	679.489755	-83.310807	292.326948	604.576727	-49.110159	222.203280	615.996048	-96.042952	420.921997	423.894053	-101.030261	335.979980	471.650013	-29.004124	294.744342	927.228004	-436.681376	320.357905	843.911944	-436.672642	357.028761	844.813578	-427.462835	299.889570	756.847121	-429.667190	284.994780	640.438862	-406.120220	293.067660	620.829176	-289.549653	136.399243	309.048927	-377.303426	82.923118	340.417015	-327.855312	162.728148	159.769971	-402.840574	239.025552	543.362632	-421.607640	228.523899	458.790790	-403.059203	175.256804	387.782927	-392.357490	257.511298	451.583389	-376.868257	219.087296	92.773696	-344.712496	-156.889002	858.102380	-214.323507	-49.525572	84.269124	-414.597396	-49.271813	80.436068	-17.227182	
756	3.7800	725.604329	1284.726468	-18.614196	763.528523	1264.413170	-351.991549	756.309139	1389.331867	-179.102333	731.215569	1220.788290	-175.974976	554.267120	1082.068680	83.541118	682.908190	943.494472	-42.976858	571.929435	1109.574174	-499.786111	677.054332	937.022626	-414.816996	203.187600	1217.378952	-262.113612	379.222988	1140.154117	-396.138399	316.544010	1201.396058	-80.429029	376.985375	1083.433120	-356.769815	349.379279	1150.914123	-106.337054	238.382397	1255.671856	-235.449478	247.667831	1243.249880	-292.961882	301.555153	1148.317311	-37.676598	313.105914	1054.273273	-423.134292	400.237110	1064.587184	-30.775230	475.645635	1025.250511	-31.163685	525.751580	950.918623	-30.113257	500.136251	1046.125296	-58.495889	576.410238	855.835130	-55.213404	560.122838	834.863342	-170.305752	494.322117	761.333902	-29.496742	444.556646	691.820549	-46.882845	367.133644	651.096189	-45.005663	461.043377	676.814892	-80.927978	294.438948	597.261653	-48.321314	223.581960	605.980048	-95.030341	430.300899	422.567123	-101.055852	343.504990	466.251638	-28.534556	296.489722	929.640468	-436.446382	324.195969	846.996922	-436.168120	360.794384	848.943605	-426.923373	305.912739	759.532312	-429.566838	291.062147	643.117865	-405.996866	299.943877	623.533114	-289.800406	134.043609	315.425237	-377.160946	81.475953	348.287178	-327.600497	154.574286	164.985192	-402.270885	243.294693	547.043418	-421.606916	230.799406	462.842498	-402.434296	176.054204	393.476016	-392.646014	259.426014	455.111392	-376.099864	208.676079	96.000572	-344.493315	-157.161373	858.247083	-214.254384	-49.484403	84.530692	-414.534189	-49.252941	80.480018	-17.193373	
